<?xml version="1.0" encoding="UTF-8"?>
<svg id="Layer_1" xmlns="http://www.w3.org/2000/svg" version="1.1" viewBox="0 0 113.4 113.4">
  <!-- Generator: Adobe Illustrator 29.8.2, SVG Export Plug-In . SVG Version: 2.1.1 Build 3)  -->
  <defs>
    <style>
      .st0 {
        fill: #513091;
      }
    </style>
  </defs>
  <g id="Wippli__xAE__Positive">
    <g>
      <path class="st0" d="M40.3,68.5v44.7h-14.6C11.5,113.2,0,101.7,0,87.5v-38.5h20.8c10.7,0,19.5,8.7,19.5,19.5"/>
      <path class="st0" d="M112.8,20.3h-16.9c-17.6,0-31.9,14.3-32,32v61.1h-11.3v-44.7c0-17.6-14.3-31.9-32-31.9H0v-11.1C0,11.6,11.5,0,25.7,0h61.9C99.8,0,110.3,8.5,112.8,20.5"/>
      <path class="st0" d="M113.4,32.7v54.9c0,14.2-11.5,25.7-25.7,25.7h-11.3v-61.1c0-10.7,8.7-19.5,19.5-19.5,0,0,17.5,0,17.5,0Z"/>
    </g>
  </g>
</svg>