<?xml version="1.0" encoding="UTF-8"?>
<svg id="Layer_1" xmlns="http://www.w3.org/2000/svg" version="1.1" viewBox="0 0 574.4 124.2">
  <!-- Generator: Adobe Illustrator 29.8.2, SVG Export Plug-In . SVG Version: 2.1.1 Build 3)  -->
  <defs>
    <style>
      .st0 {
        fill: #513091;
      }

      .st1 {
        fill: #fff;
      }

      .st2 {
        fill: #f57f33;
      }
    </style>
  </defs>
  <rect class="st2" x="460.4" y="55.3" width="112.6" height="42.5" rx="12.5" ry="12.5"/>
  <g id="Wippli__xAE__Positive">
    <g>
      <path class="st0" d="M38.5,64.2v40.4h-13.2c-12.8,0-23.2-10.4-23.2-23.2v-34.8h18.8c9.7,0,17.6,7.9,17.6,17.6"/>
      <path class="st0" d="M104.1,20.6h-15.3c-15.9,0-28.8,12.9-28.9,28.9v55.2h-10.2v-40.4c0-15.9-12.9-28.8-28.9-28.8H2.1v-10C2.1,12.7,12.5,2.3,25.3,2.3h56c11,0,20.5,7.7,22.8,18.5"/>
      <path class="st0" d="M104.6,31.8v49.6c0,12.8-10.4,23.2-23.2,23.2h-10.2v-55.2c0-9.7,7.9-17.6,17.6-17.6,0,0,15.8,0,15.8,0Z"/>
      <path class="st0" d="M215.4,69.1c0,10.4-5.5,16.7-15,17.1-9.6-.5-15-6.7-15-17.1V31.6h-11.4v37.4c0,10.4-5.5,16.7-15,17.1-9.6-.5-15-6.7-15-17.1V31.6h-11.2v38.5c0,15,9,25.2,23.1,26.6l2.6.2h3.8v-.2c6.9-.5,13.2-3.9,17.5-9.3,4.3,5.4,10.7,8.8,17.6,9.3l2.6.2h3.8v-.2c14-1.5,22.9-11.7,22.9-26.6V31.7h-11.2v37.4h-.1Z"/>
      <rect class="st0" x="240.5" y="31.7" width="11.1" height="65.3"/>
      <rect class="st0" x="437" y="31.7" width="11.1" height="65.3"/>
      <rect class="st0" x="411.7" y="10.2" width="11.1" height="86.8"/>
      <path class="st0" d="M297.7,31.7c-2.5,0-5,.3-7.5.9-7.9,1.9-14.8,6.7-19.2,13.5-3.6,5.6-5.5,12.2-5.4,18.9v57.1h11.1v-31.6c5.1,4.7,11.8,7.5,18.8,7.8h2.2c17.4,0,31.5-15.1,31.5-33.3.5-17.9-13.6-32.8-31.5-33.3M276.4,65.1v-.2c0-10.8,8.1-22.3,21.1-22.3s20.2,8.9,20.2,22.2v.2c0,14.8-10.2,22.5-20.2,22.5-12-.4-21.4-10.4-21.1-22.4"/>
      <path class="st0" d="M368.9,31.7c-2.5,0-5,.3-7.5.9-7.9,1.9-14.8,6.7-19.2,13.5-3.6,5.6-5.5,12.2-5.4,18.9v57.1h11.1v-31.6c5.1,4.7,11.8,7.5,18.8,7.8h2.2c17.4,0,31.5-15.1,31.5-33.3.5-17.9-13.6-32.8-31.5-33.3M347.6,65.1v-.2c0-10.8,8.1-22.3,21.1-22.3s20.2,8.9,20.2,22.2v.2c0,14.8-10.2,22.5-20.2,22.5-12-.4-21.4-10.4-21.1-22.4"/>
      <path class="st0" d="M246.1,10.2c-4.1,0-7.4,3.3-7.4,7.4s3.3,7.4,7.4,7.4,7.4-3.3,7.4-7.4-3.3-7.3-7.4-7.4"/>
      <path class="st0" d="M442.7,10.2c4.1,0,7.4,3.3,7.4,7.4s-3.3,7.4-7.4,7.4-7.4-3.3-7.4-7.4,3.3-7.4,7.4-7.4"/>
    </g>
  </g>
  <g>
    <path class="st1" d="M475.3,89.7h-5.4v-24.8h16.5v4.8h-11.1v5.1h9.4v4.8h-9.4v10.2Z"/>
    <path class="st1" d="M505.6,89.7h-14.9v-24.8h5.4v20h9.5v4.8Z"/>
    <path class="st1" d="M518.1,90.1c-2.2,0-4.1-.5-5.7-1.5-1.6-1-2.9-2.4-3.8-4.3-.9-1.9-1.4-4.3-1.4-7.1s.5-5.2,1.4-7.1c.9-1.9,2.2-3.3,3.8-4.3,1.6-1,3.6-1.5,5.7-1.5s4.1.5,5.8,1.5c1.6,1,2.9,2.4,3.8,4.3.9,1.9,1.4,4.3,1.4,7.1s-.5,5.2-1.4,7.1c-.9,1.9-2.2,3.4-3.8,4.3-1.6,1-3.6,1.5-5.8,1.5ZM518.1,85.3c1.1,0,2-.2,2.8-.7.8-.5,1.4-1.2,1.8-2.1.4-.9.6-2,.6-3.3v-3.7c0-1.3-.2-2.4-.6-3.4-.4-.9-1-1.6-1.8-2.1-.8-.5-1.7-.7-2.8-.7s-2,.2-2.8.7c-.8.5-1.4,1.2-1.8,2.1-.4.9-.6,2-.6,3.4v3.7c0,1.3.2,2.4.6,3.3.4.9,1,1.6,1.8,2.1.8.5,1.7.7,2.8.7Z"/>
    <path class="st1" d="M542.8,89.7h-6.2l-5.6-24.8h5.3l2.3,11.9,1.3,6.9h.1l1.6-6.9,2.7-11.9h5.9l2.8,11.9,1.5,6.9h.1l1.3-6.9,2.4-11.9h5.1l-5.8,24.8h-6.2l-3.1-13.4-1.2-5.4h-.1l-1.2,5.4-3.1,13.4Z"/>
  </g>
</svg>